<svg xmlns="http://www.w3.org/2000/svg" width="1200" height="630" viewBox="0 0 1200 630" fill="none">
  <rect width="1200" height="630" fill="#fff8f6"/>
  <rect x="0" y="0" width="1200" height="8" fill="#9d4222"/>
  <rect x="80" y="80" width="120" height="120" rx="24" fill="#9d4222"/>
  <path d="M140 110L100 135v50l40 25 40-25v-50L140 110z" stroke="#fff" stroke-width="3" stroke-linejoin="round"/>
  <path d="M140 160l40-20M140 160v50M140 160L100 135" stroke="#fff" stroke-width="3" stroke-linejoin="round"/>
  <text x="230" y="145" font-family="system-ui, -apple-system, sans-serif" font-size="42" font-weight="700" fill="#1e1b19">Bilan Français Formation</text>
  <text x="230" y="195" font-family="system-ui, -apple-system, sans-serif" font-size="28" font-weight="600" fill="#56423c">Atteignez le niveau A2, B1 ou B2 exigé</text>
  <rect x="230" y="230" width="340" height="52" rx="12" fill="#f97316"/>
  <text x="260" y="265" font-family="system-ui, -apple-system, sans-serif" font-size="22" font-weight="700" fill="#ffffff">Test gratuit en 3 minutes</text>
  <rect x="80" y="320" width="1040" height="2" fill="#dcc1b8" opacity="0.6"/>
  <text x="80" y="390" font-family="system-ui, -apple-system, sans-serif" font-size="26" font-weight="600" fill="#1e3a8a">Carte de séjour · Carte de résident · Naturalisation</text>
  <text x="80" y="440" font-family="system-ui, -apple-system, sans-serif" font-size="22" fill="#56423c">Formations en petits groupes · Positionnement indicatif · Accompagnement administratif</text>
  <rect x="80" y="500" width="180" height="44" rx="10" fill="#1e3a8a" opacity="0.12"/>
  <text x="105" y="529" font-family="system-ui, -apple-system, sans-serif" font-size="18" font-weight="700" fill="#1e3a8a">Qualiopi</text>
  <rect x="280" y="500" width="220" height="44" rx="10" fill="#9d4222" opacity="0.12"/>
  <text x="305" y="529" font-family="system-ui, -apple-system, sans-serif" font-size="18" font-weight="700" fill="#9d4222">bilanfrancaisformation.fr</text>
</svg>
